<?xml version="1.0" standalone="no"?>
<!DOCTYPE svg PUBLIC "-//W3C//DTD SVG 20010904//EN"
 "http://www.w3.org/TR/2001/REC-SVG-20010904/DTD/svg10.dtd">
<svg version="1.0" xmlns="http://www.w3.org/2000/svg"
 width="700.000000pt" height="700.000000pt" viewBox="0 0 700.000000 700.000000"
 preserveAspectRatio="xMidYMid meet">
<metadata>
Created by potrace 1.11, written by Peter Selinger 2001-2013
</metadata>
<g transform="translate(0.000000,700.000000) scale(0.100000,-0.100000)"
fill="#000000" stroke="none">
<path d="M4005 6681 c-58 -15 -100 -44 -200 -140 -129 -124 -151 -132 -318
-125 -67 3 -135 7 -152 8 -45 3 -125 -11 -170 -31 -62 -27 -103 -61 -163 -138
-97 -122 -121 -133 -311 -150 -118 -11 -140 -23 -266 -152 -95 -97 -126 -109
-244 -97 -124 13 -182 9 -226 -14 -46 -24 -119 -98 -230 -232 -102 -125 -159
-178 -222 -207 -44 -20 -85 -30 -248 -57 -143 -25 -183 -54 -268 -192 -54 -89
-101 -120 -253 -169 -66 -21 -141 -52 -169 -68 -216 -127 -385 -371 -399 -577
-4 -50 14 -111 48 -164 97 -152 121 -264 120 -546 -1 -105 -7 -179 -18 -230
-9 -41 -19 -84 -21 -94 -3 -10 -15 -58 -29 -105 -68 -242 -87 -370 -89 -611
-3 -259 21 -437 83 -622 75 -224 229 -355 468 -397 103 -18 116 -20 227 -26
500 -26 493 -24 895 -185 248 -99 379 -144 461 -157 49 -8 171 -7 239 2 25 3
108 7 185 10 200 7 279 -13 725 -183 278 -105 347 -122 535 -127 131 -3 236
-9 365 -20 67 -6 232 -28 380 -50 52 -8 113 -17 135 -20 133 -19 379 -76 460
-107 17 -6 41 -19 55 -28 139 -94 419 -188 734 -245 72 -13 145 -27 161 -30
17 -3 46 -8 65 -10 19 -3 46 -7 60 -10 14 -3 36 -8 50 -10 14 -3 68 -5 122 -6
160 -1 253 51 251 139 -1 64 -60 153 -129 199 -57 37 -492 155 -661 178 -21 3
-48 8 -60 10 -12 3 -46 7 -75 10 -29 3 -77 8 -107 11 -30 3 -77 7 -105 10 -76
7 -180 27 -496 93 -317 67 -311 65 -430 86 -47 8 -94 16 -105 18 -25 6 -124
15 -235 22 -120 8 -152 13 -265 42 -55 14 -110 27 -123 29 -13 3 -123 34 -245
70 -403 119 -677 181 -877 199 -36 3 -81 7 -100 10 -33 4 -64 7 -222 20 -35 3
-79 8 -98 11 -20 2 -58 6 -85 9 -28 2 -70 7 -95 9 -25 3 -67 8 -95 12 -27 3
-97 12 -155 20 -58 8 -123 17 -145 20 -299 38 -547 115 -715 222 -130 83 -263
250 -309 388 -22 66 -22 68 -51 239 -26 148 -49 222 -99 307 -21 36 -52 92
-67 125 l-29 58 -1 285 c-1 305 0 296 -61 479 -56 168 -43 260 55 393 56 76
139 148 324 283 195 143 233 181 330 321 119 172 170 212 373 294 125 51 187
99 375 290 154 156 200 195 310 262 39 23 224 103 335 143 55 21 165 63 245
95 80 32 204 76 275 98 110 34 143 44 195 57 30 7 147 25 190 29 30 3 64 7 75
10 55 14 249 67 315 86 41 12 122 32 180 46 117 26 180 47 226 75 31 19 31 19
22 76 -27 182 -130 354 -243 408 -44 21 -124 28 -170 16z"/>
<path d="M4315 5929 c-91 -19 -149 -39 -287 -98 -93 -39 -260 -99 -300 -106
-10 -2 -52 -13 -92 -24 -40 -11 -83 -22 -97 -25 -49 -10 -386 -105 -448 -126
-329 -111 -599 -274 -848 -511 -130 -123 -164 -146 -310 -200 -196 -74 -216
-89 -354 -280 -128 -177 -196 -241 -525 -494 -146 -113 -213 -196 -214 -266 0
-36 24 -54 105 -78 61 -17 299 -72 376 -86 15 -3 73 -16 130 -29 57 -14 115
-27 129 -29 14 -3 43 -10 65 -16 47 -12 328 -71 365 -76 14 -2 39 -6 55 -9 17
-2 53 -7 80 -10 94 -11 150 -18 180 -21 232 -25 734 -171 910 -265 142 -75
169 -81 379 -85 101 -1 196 -5 212 -9 16 -3 47 -8 69 -11 121 -17 239 -40 355
-71 212 -57 236 -63 270 -69 19 -4 49 -8 65 -11 17 -2 46 -6 65 -8 19 -3 53
-8 75 -11 23 -3 50 -7 61 -9 11 -2 51 -7 89 -10 39 -4 81 -8 95 -11 23 -4 56
-7 185 -19 28 -3 79 -8 115 -11 36 -4 76 -8 90 -10 14 -2 66 -6 115 -10 50 -4
92 -8 95 -10 3 -2 39 -6 80 -10 41 -3 92 -8 113 -10 54 -6 210 -45 222 -56 5
-5 15 -9 23 -9 7 0 113 -46 235 -101 378 -173 434 -191 502 -165 21 8 23 43 5
83 -20 44 -203 326 -228 351 -76 76 -184 214 -238 303 -88 147 -211 394 -279
564 -77 190 -120 269 -169 311 -56 48 -85 44 -104 -16 -32 -96 -153 -288 -230
-365 -44 -44 -254 -205 -352 -271 -64 -43 -109 -62 -235 -101 -270 -83 -363
-98 -605 -98 -151 0 -258 6 -335 20 -235 42 -542 108 -635 136 -134 40 -252
119 -309 208 -47 73 -98 211 -118 321 -2 14 -8 43 -13 65 -5 22 -12 63 -15 90
-4 28 -9 58 -11 67 -12 40 -11 288 0 358 13 80 46 166 96 250 16 28 30 53 30
56 0 3 8 18 18 32 10 15 31 56 46 92 50 119 101 187 179 239 66 45 131 72 320
135 226 76 255 89 382 182 125 91 231 194 330 322 23 29 55 57 75 65 31 13 45
14 96 8 24 -2 65 -56 79 -104 23 -77 39 -94 128 -137 104 -49 216 -153 241
-224 9 -25 23 -65 31 -89 23 -65 109 -190 178 -258 75 -75 142 -107 180 -87
36 19 8 96 -88 244 -30 47 -69 113 -86 146 -33 65 -122 160 -259 278 -94 82
-83 70 -168 172 -100 121 -119 133 -212 134 -41 0 -111 -7 -155 -17z"/>
<path d="M4317 5569 c-9 -6 -20 -36 -27 -81 -18 -106 -53 -157 -152 -226 -81
-56 -146 -80 -378 -142 -192 -50 -242 -68 -323 -114 -147 -82 -220 -197 -315
-497 -47 -148 -52 -175 -53 -283 0 -105 8 -170 36 -283 53 -208 144 -332 288
-392 73 -30 200 -67 257 -76 14 -2 66 -10 115 -19 135 -23 231 -30 435 -30
222 0 321 8 437 33 333 73 531 219 777 574 75 108 105 175 113 252 3 28 11 79
18 115 6 36 11 104 10 150 -4 182 -85 249 -320 265 -314 21 -398 73 -480 297
-70 193 -90 220 -206 283 -55 31 -85 56 -125 106 -54 67 -79 83 -107 68z"/>
<path d="M840 3474 c6 -15 26 -59 44 -98 36 -75 44 -112 51 -241 14 -246 24
-299 81 -423 58 -125 72 -169 104 -327 20 -95 41 -168 58 -198 35 -65 100
-128 164 -159 29 -15 130 -65 224 -112 173 -86 283 -124 429 -151 76 -14 95
-16 210 -30 62 -7 168 -13 350 -20 336 -12 424 -17 520 -30 17 -2 53 -7 80
-10 62 -8 217 -39 350 -70 55 -13 123 -29 150 -35 28 -7 59 -14 70 -16 28 -7
146 -31 235 -49 41 -8 84 -17 95 -19 31 -6 237 -47 265 -52 57 -11 252 -57
360 -85 63 -17 124 -32 135 -34 11 -3 63 -16 115 -29 96 -26 264 -64 310 -72
14 -2 41 -7 60 -10 125 -21 140 -23 305 -29 262 -10 287 -13 595 -85 264 -61
418 -104 488 -136 94 -43 89 -54 86 184 -3 198 -8 298 -19 352 -3 14 -8 40
-11 59 -3 18 -8 43 -11 55 -4 11 -7 156 -7 321 -1 330 -4 350 -60 384 -30 19
-137 56 -186 65 -92 17 -292 70 -371 100 -122 46 -261 79 -379 91 -30 4 -71 8
-90 10 -19 2 -66 6 -105 10 -38 3 -90 8 -115 11 -25 2 -63 7 -85 9 -22 3 -62
7 -90 9 -27 3 -66 7 -85 10 -19 3 -57 8 -85 11 -27 4 -66 8 -85 11 -19 2 -48
6 -65 8 -16 3 -52 8 -80 11 -27 3 -65 8 -83 11 -18 2 -54 6 -80 9 -26 3 -54 8
-62 10 -8 2 -44 7 -80 10 -36 3 -72 8 -80 10 -8 2 -35 7 -60 10 -77 10 -272
44 -340 59 -207 45 -311 66 -355 72 -27 3 -52 8 -55 9 -3 2 -59 6 -125 10
-249 13 -272 18 -415 90 -145 73 -408 148 -805 229 -11 3 -50 11 -87 19 -37 8
-111 15 -165 16 -178 4 -240 16 -488 94 -134 43 -249 70 -488 117 -60 12 -136
30 -169 41 -77 24 -79 24 -68 -7z"/>
</g>
</svg>
